<?xml version="1.0" encoding="UTF-8" standalone="no"?>
<svg
   xmlns:dc="http://purl.org/dc/elements/1.1/"
   xmlns:cc="http://creativecommons.org/ns#"
   xmlns:rdf="http://www.w3.org/1999/02/22-rdf-syntax-ns#"
   xmlns:svg="http://www.w3.org/2000/svg"
   xmlns="http://www.w3.org/2000/svg"
   xmlns:sodipodi="http://sodipodi.sourceforge.net/DTD/sodipodi-0.dtd"
   xmlns:inkscape="http://www.inkscape.org/namespaces/inkscape"
   width="800"
   height="1163"
   id="svg2"
   version="1.1"
   inkscape:version="0.48.3.1 r9886"
   sodipodi:docname="polylogo.svg"
   inkscape:export-filename="/home/jraedler/polylogo60.png"
   inkscape:export-xdpi="6.7325883"
   inkscape:export-ydpi="6.7325883">
  <metadata
     id="metadata10">
    <rdf:RDF>
      <cc:Work
         rdf:about="">
        <dc:format>image/svg+xml</dc:format>
        <dc:type
           rdf:resource="http://purl.org/dc/dcmitype/StillImage" />
        <dc:title></dc:title>
      </cc:Work>
    </rdf:RDF>
  </metadata>
  <defs
     id="defs8" />
  <sodipodi:namedview
     pagecolor="#ffffff"
     bordercolor="#666666"
     borderopacity="1"
     objecttolerance="10"
     gridtolerance="10"
     guidetolerance="10"
     inkscape:pageopacity="0"
     inkscape:pageshadow="2"
     inkscape:window-width="798"
     inkscape:window-height="480"
     id="namedview6"
     showgrid="false"
     inkscape:zoom="0.20292347"
     inkscape:cx="400"
     inkscape:cy="581.5"
     inkscape:window-x="149"
     inkscape:window-y="145"
     inkscape:window-maximized="0"
     inkscape:current-layer="svg2" />
  <path
     style="fill:#d40000;fill-opacity:1;fill-rule:evenodd;stroke:#000000;stroke-width:0.92500001;stroke-miterlimit:4;stroke-dasharray:none"
     d="m 115.3333,180.46571 -3.24352,4.19455 0,-4.92678 3.86947,0 z m 232.58684,183.2334 24.24422,33.79245 -40.20909,-9.67517 35.21,21.85647 -40.81671,6.59197 40.81671,6.59197 -35.21,21.85648 40.20909,-9.67517 -24.24422,33.79245 31.99327,-23.38319 0,5.21019 1.48684,-6.2974 -1.48684,1.08721 0,-58.36507 1.48684,1.08721 -1.48684,-6.29741 0,5.2102 z m 31.99327,-2.82301 -8.0989,-13.2908 8.0989,34.2868 0,-20.996 13.55555,22.24767 6.53104,-41.19749 6.53104,41.19749 21.65445,-35.53847 -9.58574,40.58421 33.48011,-24.4704 -24.24422,33.79245 40.20909,-9.67517 -35.21,21.85647 40.81671,6.59197 -40.81671,6.59197 35.21,21.85648 -40.20909,-9.67517 24.24422,33.79245 -33.48011,-24.4704 9.58574,40.58421 -21.65445,-35.53848 -6.53104,41.1975 -6.53104,-41.1975 -13.55555,22.24768 0,-20.99601 -8.0989,34.28681 8.0989,-13.2908 0,91.86945 -1.52735,-0.19049 -7.12301,-1.24703 -7.05489,-1.59921 -6.96835,-1.94674 -6.86431,-2.2887 -6.74555,-2.62602 -6.61022,-2.95774 -6.45739,-3.28111 -6.29076,-3.59614 -6.10846,-3.90463 -5.91145,-4.20199 -5.6997,-4.48912 -5.47415,-4.76696 -5.23661,-5.03178 -4.98529,-5.28548 -4.72289,-5.52521 -4.44763,-5.75288 -4.16315,-5.96659 -3.86854,-6.16546 -3.56289,-6.34944 -3.25079,-6.51763 -2.93041,-6.67189 -2.60173,-6.80848 -2.26755,-6.92835 -1.92875,-7.03337 -1.58442,-7.1207 -1.23551,-7.18947 -0.88565,-7.24243 -0.53121,-7.27775 -0.17769,-7.2954 0.17769,-7.2954 0.53121,-7.27774 0.88565,-7.24243 1.23551,-7.18948 1.58442,-7.1207 1.92875,-7.03336 2.26755,-6.92835 2.60173,-6.80848 2.93041,-6.67189 3.25079,-6.51763 3.56289,-6.34944 3.86854,-6.16546 4.16315,-5.96659 4.44763,-5.75288 4.72289,-5.52521 4.98529,-5.28548 5.23661,-5.03179 5.47415,-4.76696 5.6997,-4.48912 5.91145,-4.20198 6.10846,-3.90463 6.29076,-3.59614 6.45739,-3.28111 6.61022,-2.95775 6.74555,-2.62601 6.86431,-2.2887 6.96835,-1.94674 7.05489,-1.59921 7.12301,-1.24703 1.52735,-0.19049 z m -267.82363,-7.27309 -1.0348,4.6508 -2.47211,14.37986 -1.77003,14.48581 -1.06371,14.55455 -0.35491,14.5908 0.35491,14.59081 1.06371,14.55455 1.77003,14.48581 2.47211,14.37986 1.0348,4.6508 z m 267.82363,-159.39675 -1.57062,0.11708 -10.76324,1.33996 -10.6859,1.87147 -10.58095,2.39742 -10.45206,2.91965 -10.29831,3.43351 -10.11787,3.93995 -9.91441,4.43614 -9.687,4.92122 -9.43659,5.39512 -9.16224,5.85602 -8.86672,6.30298 -8.54909,6.73414 -8.21213,7.15045 -7.85493,7.54722 -7.47746,7.92821 -7.08435,8.28875 -6.6719,8.62884 -6.24472,8.94944 -5.8019,9.24771 -5.34525,9.52463 -4.87573,9.77738 -4.39515,10.0069 -3.90352,10.21226 -3.40178,10.39439 -2.89266,10.54957 -2.37526,10.67966 -1.85417,10.7856 -1.32757,10.86365 -0.7982,10.91662 -0.26606,10.94263 0.26606,10.94264 0.7982,10.91662 1.32757,10.86365 1.85417,10.78559 2.37526,10.67967 2.89266,10.54957 3.40178,10.39439 3.90352,10.21226 4.39515,10.0069 4.87573,9.77738 5.34525,9.52462 5.8019,9.24772 6.24472,8.94944 6.6719,8.62884 7.08435,8.28875 7.47746,7.92821 7.85493,7.54722 8.21213,7.15045 8.54909,6.73414 8.86672,6.30298 9.16224,5.85602 9.43659,5.39512 9.687,4.92121 9.91441,4.43615 10.11787,3.93995 10.29831,3.43351 10.45206,2.91965 10.58095,2.39741 10.6859,1.87148 10.76324,1.33995 1.57062,0.11709 0,-74.80039 5.64814,0.70342 7.21048,0.53617 7.22797,0.17934 7.22797,-0.17934 7.21048,-0.53617 7.17549,-0.89391 7.12301,-1.24703 7.05489,-1.59921 6.96835,-1.94674 6.86431,-2.2887 6.74555,-2.62602 6.61022,-2.95774 6.45739,-3.28111 6.29076,-3.59614 6.10846,-3.90463 5.91145,-4.20199 5.6997,-4.48912 5.47415,-4.76696 5.23661,-5.03178 4.98529,-5.28548 4.72289,-5.52521 4.44763,-5.75288 4.16315,-5.96659 3.86854,-6.16546 3.56289,-6.34944 3.25079,-6.51763 2.93041,-6.67189 2.60173,-6.80848 2.26755,-6.92835 1.92875,-7.03337 1.58442,-7.1207 1.23551,-7.18947 0.88565,-7.24243 0.53121,-7.27775 0.17769,-7.2954 -0.17769,-7.2954 -0.53121,-7.27774 -0.88565,-7.24243 -1.23551,-7.18948 -1.58442,-7.1207 -1.92875,-7.03336 -2.26755,-6.92835 -2.60173,-6.80848 -2.93041,-6.67189 -3.25079,-6.51763 -3.56289,-6.34944 -3.86854,-6.16546 -4.16315,-5.96659 -4.44763,-5.75288 -4.72289,-5.52521 -4.98529,-5.28548 -5.23661,-5.03179 -5.47415,-4.76696 -5.6997,-4.48912 -5.91145,-4.20198 -6.10846,-3.90463 -6.29076,-3.59614 -6.45739,-3.28111 -6.61022,-2.95775 -6.74555,-2.62601 -6.86431,-2.2887 -6.96835,-1.94674 -7.05489,-1.59921 -7.12301,-1.24703 -7.17549,-0.89391 -7.21048,-0.53618 -7.22797,-0.17934 -7.22797,0.17934 -7.21048,0.53618 -5.64814,0.70342 z m 38.15605,-149.186505 18.02619,1.342082 17.93873,2.233214 17.80892,3.118958 17.63584,3.997193 17.42041,4.865831 17.16263,5.722675 16.86341,6.565768 16.52463,7.393063 16.14531,8.202516 15.72643,8.992271 15.2707,9.760284 14.77817,10.50478 14.24879,11.22401 13.6872,11.91665 13.09062,12.57902 12.46275,13.21275 11.80633,13.81489 11.12044,14.38173 10.40787,14.91602 9.66952,15.41317 8.90998,15.87315 8.12652,16.29594 7.32463,16.67879 6.50527,17.02073 5.66932,17.32275 4.8214,17.58293 3.95969,17.80037 3.0906,17.97506 2.2123,18.10609 1.32941,18.19435 0.44375,18.23804 -0.44375,18.23804 -1.32941,18.19436 -2.2123,18.10608 -3.0906,17.97507 -3.95969,17.80037 -4.8214,17.58293 -5.66932,17.32274 -6.50527,17.02074 -7.32463,16.67879 -8.12652,16.29594 -8.90998,15.87314 -9.66952,15.41317 -10.40787,14.91603 -11.12044,14.38173 -11.80633,13.81489 -12.46275,13.21275 -13.09062,12.57901 -13.6872,11.91647 -14.24879,11.2242 -14.77817,10.50497 -15.2707,9.75972 -15.72643,8.9931 -16.14531,8.20234 -16.52463,7.39297 -16.86341,6.56595 -17.16263,5.72221 -17.42041,4.86639 -17.63584,3.99663 -17.80892,3.11943 -17.93873,2.23295 -18.02619,1.34181 -18.06946,0.44788 -18.06946,-0.44788 -2.01713,-0.14961 0,338.50346 -267.82363,0 0,-477.99419 3.24352,4.19455 11.80651,13.81489 12.46275,13.21275 13.09062,12.57901 13.6872,11.91647 14.24879,11.2242 14.77817,10.50497 15.2707,9.75972 15.72643,8.9931 16.14531,8.20234 16.52463,7.39297 16.86341,6.56595 17.16263,5.72221 17.42041,4.86639 17.63584,3.99663 17.80892,3.11943 17.93873,2.23295 16.00906,1.1922 0,-74.51884 5.63065,0.42002 14.45594,0.35775 14.45594,-0.35775 14.42003,-1.0742 14.3519,-1.78691 14.24696,-2.49498 14.10885,-3.19749 13.93577,-3.89256 13.73047,-4.57832 13.49111,-5.25295 13.21951,-5.91363 12.9157,-6.56224 12.58151,-7.19411 12.21601,-7.80834 11.8229,-8.40397 11.3994,-8.97917 10.94921,-9.53299 10.47232,-10.06359 9.97056,-10.57001 9.44488,-11.05136 8.89617,-11.50574 8.3263,-11.9332 7.73616,-12.32998 7.12762,-12.69889 6.50158,-13.0362 5.85897,-13.34284 5.2044,-13.61696 4.53601,-13.85856 3.85657,-14.06579 3.16793,-14.24048 2.47193,-14.37986 1.7704,-14.48581 1.06426,-14.55455 0.35445,-14.59081 -0.35445,-14.5908 -1.06426,-14.55455 -1.7704,-14.48581 -2.47193,-14.37986 -3.16793,-14.24048 -3.85657,-14.06579 -4.53601,-13.85856 -5.2044,-13.61697 -5.85897,-13.34284 -6.50158,-13.0362 -7.12762,-12.69888 -7.73616,-12.32998 -8.3263,-11.9332 -8.89617,-11.50575 -9.44488,-11.05136 -9.97056,-10.57001 -10.47232,-10.06358 -10.94921,-9.53299 -11.3994,-8.97917 -11.8229,-8.40397 -12.21601,-7.80834 -12.58151,-7.19412 -12.9157,-6.56223 -13.21951,-5.91363 -13.49111,-5.25304 -13.73047,-4.57815 -13.93577,-3.89264 -14.10885,-3.19777 -14.24696,-2.49517 -14.3519,-1.78654 -14.42003,-1.07364 L 400,118.91059 l -14.45594,0.35822 -14.42003,1.07364 -14.3519,1.78654 -14.24696,2.49517 -14.10885,3.19777 -13.93577,3.89264 -13.73047,4.57815 -13.49111,5.25304 -13.21951,5.91363 -12.9157,6.56223 -12.58151,7.19412 -12.21601,7.80834 -11.8229,8.40397 -2.92673,2.30543 158.3368,0 0,14.47278 9.2451,-0.68855 10.84149,-0.26856 10.84149,0.26856 10.81572,0.80563 10.76324,1.33996 10.6859,1.87147 10.58095,2.39742 10.45206,2.91965 10.29831,3.43351 10.11787,3.93995 9.91441,4.43614 9.687,4.92122 9.43659,5.39512 9.16224,5.85602 8.86672,6.30298 8.54909,6.73414 8.21213,7.15045 7.85493,7.54722 7.47746,7.92821 7.08435,8.28875 6.6719,8.62884 6.24472,8.94944 5.8019,9.24771 5.34525,9.52463 4.87573,9.77738 4.39515,10.0069 3.90352,10.21226 3.40178,10.39439 2.89266,10.54957 2.37526,10.67966 1.85417,10.7856 1.32757,10.86365 0.7982,10.91662 0.26606,10.94263 -0.26606,10.94264 -0.7982,10.91662 -1.32757,10.86365 -1.85417,10.78559 -2.37526,10.67967 -2.89266,10.54957 -3.40178,10.39439 -3.90352,10.21226 -4.39515,10.0069 -4.87573,9.77738 -5.34525,9.52462 -5.8019,9.24772 -6.24472,8.94944 -6.6719,8.62884 -7.08435,8.28875 -7.47746,7.92821 -7.85493,7.54722 -8.21213,7.15045 -8.54909,6.73414 -8.86672,6.30298 -9.16224,5.85602 -9.43659,5.39512 -9.687,4.92121 -9.91441,4.43615 -10.11787,3.93995 -10.29831,3.43351 -10.45206,2.91965 -10.58095,2.39741 -10.6859,1.87148 -10.76324,1.33995 -10.81572,0.80564 -10.84149,0.26856 -10.84149,-0.26856 -9.2451,-0.68855 0,74.51789 -8.78938,-0.65418 -14.3519,-1.78691 -14.24696,-2.49498 -14.10885,-3.19749 -13.93577,-3.89256 -13.73047,-4.57832 -13.49111,-5.25295 -13.21951,-5.91363 -12.9157,-6.56224 -12.58151,-7.19411 -12.21601,-7.80834 -11.8229,-8.40397 -11.3994,-8.97917 -10.94921,-9.53299 -10.47232,-10.06359 -9.97056,-10.57001 -9.44488,-11.05136 -8.89617,-11.50574 -8.3263,-11.9332 -7.73616,-12.32998 -7.12762,-12.69889 -6.50158,-13.0362 -5.85897,-13.34284 -5.20449,-13.61696 -4.53582,-13.85856 -3.85667,-14.06579 -2.13341,-9.58968 0,168.94275 -7.87674,-10.18718 -10.407688,-14.91603 -9.670067,-15.41317 -8.909155,-15.87314 -8.1267,-16.29594 -7.324728,-16.67879 -6.50508,-17.02074 -5.66978,-17.32274 -4.820856,-17.58293 -3.960247,-17.80037 -3.090129,-17.97507 -2.212572,-18.10608 -1.329678,-18.19436 -0.443582,-18.23804 0.443582,-18.23804 1.329678,-18.19435 2.212572,-18.10609 3.090129,-17.97506 3.960247,-17.80037 4.820856,-17.58293 5.66978,-17.32275 6.50508,-17.02073 7.324728,-16.67879 8.1267,-16.29594 8.909155,-15.87315 9.670067,-15.41317 10.407688,-14.91602 7.87674,-10.18718 0,168.94275 2.13341,-9.58968 3.85667,-14.06579 4.53582,-13.85856 5.20449,-13.61697 5.85897,-13.34284 6.50158,-13.0362 7.12762,-12.69888 7.73616,-12.32998 8.3263,-11.9332 8.89617,-11.50575 9.44488,-11.05136 9.97056,-10.57001 10.47232,-10.06358 10.94921,-9.53299 8.47267,-6.67374 -105.61736,0 11.18056,-13.08266 12.46275,-13.21275 13.09062,-12.57902 13.6872,-11.91665 14.24879,-11.22401 14.77817,-10.50478 15.2707,-9.760284 15.72643,-8.992271 16.14531,-8.202516 16.52463,-7.393063 16.86341,-6.565768 17.16263,-5.722675 17.42041,-4.865831 17.63584,-3.997193 17.80892,-3.118958 17.93873,-2.233214 18.02619,-1.342082 L 400,44.572034 z"
     id="path4"
     inkscape:connector-curvature="0" />
</svg>
